<svg xmlns="http://www.w3.org/2000/svg" width="800" height="600"><style>.assembly-component{fill:none;stroke:#000}.assembly-component-label{fill:#000;font-family:Arial,serif;font-weight:700;dominant-baseline:middle;text-anchor:middle}.assembly-boundary{fill:none;stroke:#fff;stroke-width:.2}</style><rect width="800" height="600" x="0" y="0" fill="#fff"/><rect width="562.5" height="562.5" x="118.75" y="18.75" class="assembly-boundary"/><path fill="none" stroke="#000" stroke-opacity=".8" stroke-width="3.75" d="M 118.75 581.25 L 681.25 581.25 L 681.25 18.75 L 118.75 18.75 Z" class="pcb-board"/><g><rect width="28.125" height="28.125" x="408.25" y="192.188" fill="#D2D2D2" class="assembly-hole-outer-pad"/><circle cx="NaN" cy="NaN" r="9.375" fill="#BEBEBE" class="assembly-hole-inner"/></g><g><circle cx="469.938" cy="206.25" r="14.063" fill="#D2D2D2" class="assembly-hole-outer"/><circle cx="469.938" cy="206.25" r="9.375" fill="#BEBEBE" class="assembly-hole-inner"/></g><g><circle cx="517.563" cy="206.25" r="14.063" fill="#D2D2D2" class="assembly-hole-outer"/><circle cx="517.563" cy="206.25" r="9.375" fill="#BEBEBE" class="assembly-hole-inner"/></g><g><circle cx="565.188" cy="206.25" r="14.063" fill="#D2D2D2" class="assembly-hole-outer"/><circle cx="565.188" cy="206.25" r="9.375" fill="#BEBEBE" class="assembly-hole-inner"/></g><circle cx="400" cy="393.75" r="9.375" fill="#BEBEBE" class="assembly-hole"/><rect width="18.75" height="11.25" x="256.563" y="164.906" fill="#D2D2D2" class="assembly-pad" data-layer="top"/><rect width="18.75" height="11.25" x="256.563" y="188.719" fill="#D2D2D2" class="assembly-pad" data-layer="top"/><rect width="18.75" height="11.25" x="256.563" y="212.531" fill="#D2D2D2" class="assembly-pad" data-layer="top"/><rect width="18.75" height="11.25" x="256.563" y="236.344" fill="#D2D2D2" class="assembly-pad" data-layer="top"/><rect width="18.75" height="11.25" x="337.188" y="236.344" fill="#D2D2D2" class="assembly-pad" data-layer="top"/><rect width="18.75" height="11.25" x="337.188" y="212.531" fill="#D2D2D2" class="assembly-pad" data-layer="top"/><rect width="18.75" height="11.25" x="337.188" y="188.719" fill="#D2D2D2" class="assembly-pad" data-layer="top"/><rect width="18.75" height="11.25" x="337.188" y="164.906" fill="#D2D2D2" class="assembly-pad" data-layer="top"/><rect width="19.219" height="26.25" x="279.531" y="380.625" fill="#D2D2D2" class="assembly-pad" data-layer="top"/><rect width="19.219" height="26.25" x="313.75" y="380.625" fill="#D2D2D2" class="assembly-pad" data-layer="top"/><g transform="translate(306.25, 206.25) scale(1, -1)"><path stroke-width=".8" d="M-49.68750000000001,-41.34375 L49.68750000000001,-41.34375 L49.68750000000001,41.34375 L-49.68750000000001,41.34375 Z" class="assembly-component" transform="rotate(0)"/><text x="0" y="0" class="assembly-component-label" dy=".1em" font-size="58" text-anchor="middle" transform="scale(1, -1)" style="pointer-events:none">U1</text><polygon fill="#333" stroke="none" points="-49.688 41.344 -29.016 41.344 -49.688 20.672" class="assembly-pin1-indicator" transform="rotate(0)"/></g><g><path stroke-width=".8" d="M-85.50000000000001,-14.0625 L85.50000000000001,-14.0625 L85.50000000000001,14.0625 L-85.50000000000001,14.0625 Z" class="assembly-component" transform="translate(493.75, 206.25) scale(1, -1) rotate(0)"/><text x="0" y="0" class="assembly-component-label" dy=".1em" font-size="22.5" text-anchor="middle" transform="translate(493.75, 206.25) scale(1, -1) scale(1, -1)" style="pointer-events:none">P1</text></g><g><path stroke-width=".8" d="M-26.718749999999996,-13.125000000000004 L26.718749999999996,-13.125000000000004 L26.718749999999996,13.125000000000004 L-26.718749999999996,13.125000000000004 Z" class="assembly-component" transform="translate(306.25, 393.75) scale(1, -1) rotate(0)"/><text x="0" y="0" class="assembly-component-label" dy=".1em" font-size="21" text-anchor="middle" transform="translate(306.25, 393.75) scale(1, -1) scale(1, -1)" style="pointer-events:none">R1</text></g></svg>