<svg xmlns="http://www.w3.org/2000/svg" width="800" height="600"><style/><rect width="800" height="600" x="0" y="0" fill="#000" class="boundary"/><rect width="576.923" height="576.923" x="111.538" y="11.538" fill="none" stroke="#fff" stroke-width=".3" class="pcb-boundary"/><path fill="none" stroke="rgba(255, 255, 255, 0.5)" stroke-width="1.154" d="M 111.53846153846155 588.4615384615385 L 688.4615384615385 588.4615384615385 L 688.4615384615385 11.538461538461547 L 111.53846153846155 11.538461538461547 Z" class="pcb-board"/><rect width="115.385" height="115.385" x="-57.692" y="-57.692" fill="#C83434" fill-opacity=".5" class="pcb-copper-pour pcb-copper-pour-rect" data-layer="top" transform="matrix(1,0,0,1,261.53846153846155,161.53846153846155)"/><rect width="115.385" height="57.692" x="-57.692" y="-28.846" fill="#C83434" fill-opacity=".5" class="pcb-copper-pour pcb-copper-pour-rect" data-layer="top" transform="matrix(0.7071067811865476,-0.7071067811865475,0.7071067811865475,0.7071067811865476,538.4615384615385,161.53846153846155)"/><polygon fill="#4D7FC4" fill-opacity=".5" points="376.923 403.846 423.077 403.846 423.077 450 469.231 450 469.231 496.154 423.077 496.154 423.077 542.308 376.923 542.308 330.769 496.154 330.769 450 376.923 450" class="pcb-copper-pour pcb-copper-pour-polygon" data-layer="bottom"/></svg>