<svg xmlns="http://www.w3.org/2000/svg" width="800" height="600"><style/><rect width="800" height="600" x="0" y="0" fill="#000" class="boundary" data-pcb-layer="global" data-type="pcb_background"/><rect width="774.194" height="580.645" x="12.903" y="9.677" fill="none" stroke="#fff" stroke-width=".3" class="pcb-boundary" data-pcb-layer="global" data-type="pcb_boundary"/><path fill="none" stroke="rgba(255, 255, 255, 0.5)" stroke-width=".968" d="M 12.903225806451587 590.3225806451612 L 787.0967741935484 590.3225806451612 L 787.0967741935484 9.677419354838719 L 12.903225806451587 9.677419354838719 Z" class="pcb-board" data-pcb-layer="board" data-type="pcb_board"/><g data-pcb-layer="top" data-type="pcb_component" transform="translate(177.41935483870967, 135.48387096774192) rotate(0) scale(1, -1)"><rect width="29.032" height="19.355" x="-14.516" y="-9.677" fill="rgba(255, 0, 0, 0.1)" stroke="red" class="pcb-component" data-pcb-layer="top" data-type="pcb_component"/></g><g data-pcb-layer="top" data-type="pcb_component" transform="translate(225.80645161290323, 183.8709677419355) rotate(0) scale(1, -1)"><rect width="24.194" height="19.355" x="-12.097" y="-9.677" fill="rgba(255, 0, 0, 0.1)" stroke="red" class="pcb-component" data-pcb-layer="top" data-type="pcb_component"/></g><g data-pcb-layer="top" data-type="pcb_component" transform="translate(632.258064516129, 174.19354838709677) rotate(0) scale(1, -1)"><rect width="48.387" height="29.032" x="-24.194" y="-14.516" fill="rgba(255, 0, 0, 0.1)" stroke="red" class="pcb-component" data-pcb-layer="top" data-type="pcb_component"/></g><g data-pcb-layer="top" data-type="pcb_component" transform="translate(564.516129032258, 125.80645161290323) rotate(0) scale(1, -1)"><rect width="38.71" height="33.871" x="-19.355" y="-16.935" fill="rgba(255, 0, 0, 0.1)" stroke="red" class="pcb-component" data-pcb-layer="top" data-type="pcb_component"/></g><g data-pcb-layer="top" data-type="pcb_component" transform="translate(167.74193548387098, 474.19354838709677) rotate(0) scale(1, -1)"><rect width="58.065" height="48.387" x="-29.032" y="-24.194" fill="rgba(255, 0, 0, 0.1)" stroke="red" class="pcb-component" data-pcb-layer="top" data-type="pcb_component"/></g><g data-pcb-layer="top" data-type="pcb_component" transform="translate(235.48387096774192, 406.4516129032258) rotate(0) scale(1, -1)"><rect width="48.387" height="38.71" x="-24.194" y="-19.355" fill="rgba(255, 0, 0, 0.1)" stroke="red" class="pcb-component" data-pcb-layer="top" data-type="pcb_component"/></g><g data-pcb-layer="top" data-type="pcb_component" transform="translate(641.9354838709678, 425.80645161290323) rotate(0) scale(1, -1)"><rect width="38.71" height="58.065" x="-19.355" y="-29.032" fill="rgba(255, 0, 0, 0.1)" stroke="red" class="pcb-component" data-pcb-layer="top" data-type="pcb_component"/></g><g data-pcb-layer="top" data-type="pcb_component" transform="translate(554.8387096774194, 474.19354838709677) rotate(0) scale(1, -1)"><rect width="29.032" height="29.032" x="-14.516" y="-14.516" fill="rgba(255, 0, 0, 0.1)" stroke="red" class="pcb-component" data-pcb-layer="top" data-type="pcb_component"/></g><rect width="116.129" height="96.774" x="148.387" y="106.452" fill="none" stroke="rgba(100, 200, 255, 0.6)" stroke-dasharray="2.903 1.452" stroke-width=".968" class="pcb-group" data-group-name="Group 1" data-pcb-group-id="group_1" data-pcb-layer="overlay" data-type="pcb_group"/><rect width="145.161" height="116.129" x="520.968" y="96.774" fill="none" stroke="rgba(100, 200, 255, 0.6)" stroke-dasharray="2.903 1.452" stroke-width=".968" class="pcb-group" data-group-name="Group 2" data-pcb-group-id="group_2" data-pcb-layer="overlay" data-type="pcb_group"/><rect width="174.194" height="135.484" x="119.355" y="377.419" fill="none" stroke="rgba(100, 200, 255, 0.6)" stroke-dasharray="2.903 1.452" stroke-width=".968" class="pcb-group" data-group-name="Group 3" data-pcb-group-id="group_3" data-pcb-layer="overlay" data-type="pcb_group"/><rect width="154.839" height="125.806" x="516.129" y="382.258" fill="none" stroke="rgba(100, 200, 255, 0.6)" stroke-dasharray="2.903 1.452" stroke-width=".968" class="pcb-group" data-group-name="Group 4" data-pcb-group-id="group_4" data-pcb-layer="overlay" data-type="pcb_group"/><g class="anchor-offset-marker" data-type="anchor_offset_marker"><line x1="206.452" x2="206.452" y1="149.839" y2="159.839" stroke="#fff" stroke-linecap="round" stroke-width="1.5"/><line x1="201.452" x2="211.452" y1="154.839" y2="154.839" stroke="#fff" stroke-linecap="round" stroke-width="1.5"/></g><line x1="200.627" x2="180.748" y1="150.956" y2="137.703" stroke="#fff" stroke-dasharray="3 3" stroke-width=".5" class="anchor-offset-connector" opacity=".5"/><circle cx="177.419" cy="135.484" r="2" fill="#fff" class="anchor-offset-component-marker" opacity=".7"/><line x1="206.452" x2="177.419" y1="110.806" y2="110.806" stroke="#fff" stroke-width="1" class="anchor-offset-dimension-x"/><line x1="206.452" x2="206.452" y1="106.806" y2="114.806" stroke="#fff" stroke-width="1"/><line x1="177.419" x2="177.419" y1="106.806" y2="114.806" stroke="#fff" stroke-width="1"/><text x="191.935" y="98.806" fill="#fff" class="anchor-offset-label" dominant-baseline="baseline" font-family="Arial, sans-serif" font-size="11" text-anchor="middle">X: -3.00mm</text><line x1="152.903" x2="152.903" y1="154.839" y2="135.484" stroke="#fff" stroke-width="1" class="anchor-offset-dimension-y"/><line x1="148.903" x2="156.903" y1="154.839" y2="154.839" stroke="#fff" stroke-width="1"/><line x1="148.903" x2="156.903" y1="135.484" y2="135.484" stroke="#fff" stroke-width="1"/><text x="144.903" y="145.161" fill="#fff" class="anchor-offset-label" dominant-baseline="middle" font-family="Arial, sans-serif" font-size="11" text-anchor="end">Y: 2.00mm</text><g class="anchor-offset-marker" data-type="anchor_offset_marker"><line x1="206.452" x2="206.452" y1="149.839" y2="159.839" stroke="#fff" stroke-linecap="round" stroke-width="1.5"/><line x1="201.452" x2="211.452" y1="154.839" y2="154.839" stroke="#fff" stroke-linecap="round" stroke-width="1.5"/></g><line x1="210.335" x2="223.588" y1="160.663" y2="180.543" stroke="#fff" stroke-dasharray="3 3" stroke-width=".5" class="anchor-offset-connector" opacity=".5"/><circle cx="225.806" cy="183.871" r="2" fill="#fff" class="anchor-offset-component-marker" opacity=".7"/><line x1="206.452" x2="225.806" y1="208.548" y2="208.548" stroke="#fff" stroke-width="1" class="anchor-offset-dimension-x"/><line x1="206.452" x2="206.452" y1="204.548" y2="212.548" stroke="#fff" stroke-width="1"/><line x1="225.806" x2="225.806" y1="204.548" y2="212.548" stroke="#fff" stroke-width="1"/><text x="216.129" y="220.548" fill="#fff" class="anchor-offset-label" dominant-baseline="hanging" font-family="Arial, sans-serif" font-size="11" text-anchor="middle">X: 2.00mm</text><line x1="247.903" x2="247.903" y1="154.839" y2="183.871" stroke="#fff" stroke-width="1" class="anchor-offset-dimension-y"/><line x1="243.903" x2="251.903" y1="154.839" y2="154.839" stroke="#fff" stroke-width="1"/><line x1="243.903" x2="251.903" y1="183.871" y2="183.871" stroke="#fff" stroke-width="1"/><text x="255.903" y="169.355" fill="#fff" class="anchor-offset-label" dominant-baseline="middle" font-family="Arial, sans-serif" font-size="11" text-anchor="start">Y: -3.00mm</text><g class="anchor-offset-marker" data-type="anchor_offset_marker"><line x1="593.548" x2="593.548" y1="149.839" y2="159.839" stroke="#fff" stroke-linecap="round" stroke-width="1.5"/><line x1="588.548" x2="598.548" y1="154.839" y2="154.839" stroke="#fff" stroke-linecap="round" stroke-width="1.5"/></g><line x1="599.809" x2="628.68" y1="157.969" y2="172.405" stroke="#fff" stroke-dasharray="3 3" stroke-width=".5" class="anchor-offset-connector" opacity=".5"/><circle cx="632.258" cy="174.194" r="2" fill="#fff" class="anchor-offset-component-marker" opacity=".7"/><line x1="593.548" x2="632.258" y1="203.71" y2="203.71" stroke="#fff" stroke-width="1" class="anchor-offset-dimension-x"/><line x1="593.548" x2="593.548" y1="199.71" y2="207.71" stroke="#fff" stroke-width="1"/><line x1="632.258" x2="632.258" y1="199.71" y2="207.71" stroke="#fff" stroke-width="1"/><text x="612.903" y="215.71" fill="#fff" class="anchor-offset-label" dominant-baseline="hanging" font-family="Arial, sans-serif" font-size="11" text-anchor="middle">X: 4.00mm</text><line x1="666.452" x2="666.452" y1="154.839" y2="174.194" stroke="#fff" stroke-width="1" class="anchor-offset-dimension-y"/><line x1="662.452" x2="670.452" y1="154.839" y2="154.839" stroke="#fff" stroke-width="1"/><line x1="662.452" x2="670.452" y1="174.194" y2="174.194" stroke="#fff" stroke-width="1"/><text x="674.452" y="164.516" fill="#fff" class="anchor-offset-label" dominant-baseline="middle" font-family="Arial, sans-serif" font-size="11" text-anchor="start">Y: -2.00mm</text><g class="anchor-offset-marker" data-type="anchor_offset_marker"><line x1="593.548" x2="593.548" y1="149.839" y2="159.839" stroke="#fff" stroke-linecap="round" stroke-width="1.5"/><line x1="588.548" x2="598.548" y1="154.839" y2="154.839" stroke="#fff" stroke-linecap="round" stroke-width="1.5"/></g><line x1="588.599" x2="567.345" y1="149.889" y2="128.635" stroke="#fff" stroke-dasharray="3 3" stroke-width=".5" class="anchor-offset-connector" opacity=".5"/><circle cx="564.516" cy="125.806" r="2" fill="#fff" class="anchor-offset-component-marker" opacity=".7"/><line x1="593.548" x2="564.516" y1="93.871" y2="93.871" stroke="#fff" stroke-width="1" class="anchor-offset-dimension-x"/><line x1="593.548" x2="593.548" y1="89.871" y2="97.871" stroke="#fff" stroke-width="1"/><line x1="564.516" x2="564.516" y1="89.871" y2="97.871" stroke="#fff" stroke-width="1"/><text x="579.032" y="81.871" fill="#fff" class="anchor-offset-label" dominant-baseline="baseline" font-family="Arial, sans-serif" font-size="11" text-anchor="middle">X: -3.00mm</text><line x1="535.161" x2="535.161" y1="154.839" y2="125.806" stroke="#fff" stroke-width="1" class="anchor-offset-dimension-y"/><line x1="531.161" x2="539.161" y1="154.839" y2="154.839" stroke="#fff" stroke-width="1"/><line x1="531.161" x2="539.161" y1="125.806" y2="125.806" stroke="#fff" stroke-width="1"/><text x="527.161" y="140.323" fill="#fff" class="anchor-offset-label" dominant-baseline="middle" font-family="Arial, sans-serif" font-size="11" text-anchor="end">Y: 3.00mm</text><g class="anchor-offset-marker" data-type="anchor_offset_marker"><line x1="206.452" x2="206.452" y1="440.161" y2="450.161" stroke="#fff" stroke-linecap="round" stroke-width="1.5"/><line x1="201.452" x2="211.452" y1="445.161" y2="445.161" stroke="#fff" stroke-linecap="round" stroke-width="1.5"/></g><line x1="200.852" x2="170.942" y1="449.361" y2="471.794" stroke="#fff" stroke-dasharray="3 3" stroke-width=".5" class="anchor-offset-connector" opacity=".5"/><circle cx="167.742" cy="474.194" r="2" fill="#fff" class="anchor-offset-component-marker" opacity=".7"/><line x1="206.452" x2="167.742" y1="513.387" y2="513.387" stroke="#fff" stroke-width="1" class="anchor-offset-dimension-x"/><line x1="206.452" x2="206.452" y1="509.387" y2="517.387" stroke="#fff" stroke-width="1"/><line x1="167.742" x2="167.742" y1="509.387" y2="517.387" stroke="#fff" stroke-width="1"/><text x="187.097" y="525.387" fill="#fff" class="anchor-offset-label" dominant-baseline="hanging" font-family="Arial, sans-serif" font-size="11" text-anchor="middle">X: -4.00mm</text><line x1="128.71" x2="128.71" y1="445.161" y2="474.194" stroke="#fff" stroke-width="1" class="anchor-offset-dimension-y"/><line x1="124.71" x2="132.71" y1="445.161" y2="445.161" stroke="#fff" stroke-width="1"/><line x1="124.71" x2="132.71" y1="474.194" y2="474.194" stroke="#fff" stroke-width="1"/><text x="120.71" y="459.677" fill="#fff" class="anchor-offset-label" dominant-baseline="middle" font-family="Arial, sans-serif" font-size="11" text-anchor="end">Y: -3.00mm</text><g class="anchor-offset-marker" data-type="anchor_offset_marker"><line x1="206.452" x2="206.452" y1="440.161" y2="450.161" stroke="#fff" stroke-linecap="round" stroke-width="1.5"/><line x1="201.452" x2="211.452" y1="445.161" y2="445.161" stroke="#fff" stroke-linecap="round" stroke-width="1.5"/></g><line x1="210.652" x2="233.084" y1="439.561" y2="409.652" stroke="#fff" stroke-dasharray="3 3" stroke-width=".5" class="anchor-offset-connector" opacity=".5"/><circle cx="235.484" cy="406.452" r="2" fill="#fff" class="anchor-offset-component-marker" opacity=".7"/><line x1="206.452" x2="235.484" y1="372.097" y2="372.097" stroke="#fff" stroke-width="1" class="anchor-offset-dimension-x"/><line x1="206.452" x2="206.452" y1="368.097" y2="376.097" stroke="#fff" stroke-width="1"/><line x1="235.484" x2="235.484" y1="368.097" y2="376.097" stroke="#fff" stroke-width="1"/><text x="220.968" y="360.097" fill="#fff" class="anchor-offset-label" dominant-baseline="baseline" font-family="Arial, sans-serif" font-size="11" text-anchor="middle">X: 3.00mm</text><line x1="269.677" x2="269.677" y1="445.161" y2="406.452" stroke="#fff" stroke-width="1" class="anchor-offset-dimension-y"/><line x1="265.677" x2="273.677" y1="445.161" y2="445.161" stroke="#fff" stroke-width="1"/><line x1="265.677" x2="273.677" y1="406.452" y2="406.452" stroke="#fff" stroke-width="1"/><text x="277.677" y="425.806" fill="#fff" class="anchor-offset-label" dominant-baseline="middle" font-family="Arial, sans-serif" font-size="11" text-anchor="start">Y: 4.00mm</text><g class="anchor-offset-marker" data-type="anchor_offset_marker"><line x1="593.548" x2="593.548" y1="440.161" y2="450.161" stroke="#fff" stroke-linecap="round" stroke-width="1.5"/><line x1="588.548" x2="598.548" y1="445.161" y2="445.161" stroke="#fff" stroke-linecap="round" stroke-width="1.5"/></g><line x1="600.048" x2="638.222" y1="442.562" y2="427.292" stroke="#fff" stroke-dasharray="3 3" stroke-width=".5" class="anchor-offset-connector" opacity=".5"/><circle cx="641.935" cy="425.806" r="2" fill="#fff" class="anchor-offset-component-marker" opacity=".7"/><line x1="593.548" x2="641.935" y1="381.774" y2="381.774" stroke="#fff" stroke-width="1" class="anchor-offset-dimension-x"/><line x1="593.548" x2="593.548" y1="377.774" y2="385.774" stroke="#fff" stroke-width="1"/><line x1="641.935" x2="641.935" y1="377.774" y2="385.774" stroke="#fff" stroke-width="1"/><text x="617.742" y="369.774" fill="#fff" class="anchor-offset-label" dominant-baseline="baseline" font-family="Arial, sans-serif" font-size="11" text-anchor="middle">X: 5.00mm</text><line x1="671.29" x2="671.29" y1="445.161" y2="425.806" stroke="#fff" stroke-width="1" class="anchor-offset-dimension-y"/><line x1="667.29" x2="675.29" y1="445.161" y2="445.161" stroke="#fff" stroke-width="1"/><line x1="667.29" x2="675.29" y1="425.806" y2="425.806" stroke="#fff" stroke-width="1"/><text x="679.29" y="435.484" fill="#fff" class="anchor-offset-label" dominant-baseline="middle" font-family="Arial, sans-serif" font-size="11" text-anchor="start">Y: 2.00mm</text><g class="anchor-offset-marker" data-type="anchor_offset_marker"><line x1="593.548" x2="593.548" y1="440.161" y2="450.161" stroke="#fff" stroke-linecap="round" stroke-width="1.5"/><line x1="588.548" x2="598.548" y1="445.161" y2="445.161" stroke="#fff" stroke-linecap="round" stroke-width="1.5"/></g><line x1="587.948" x2="558.039" y1="449.361" y2="471.794" stroke="#fff" stroke-dasharray="3 3" stroke-width=".5" class="anchor-offset-connector" opacity=".5"/><circle cx="554.839" cy="474.194" r="2" fill="#fff" class="anchor-offset-component-marker" opacity=".7"/><line x1="593.548" x2="554.839" y1="503.71" y2="503.71" stroke="#fff" stroke-width="1" class="anchor-offset-dimension-x"/><line x1="593.548" x2="593.548" y1="499.71" y2="507.71" stroke="#fff" stroke-width="1"/><line x1="554.839" x2="554.839" y1="499.71" y2="507.71" stroke="#fff" stroke-width="1"/><text x="574.194" y="515.71" fill="#fff" class="anchor-offset-label" dominant-baseline="hanging" font-family="Arial, sans-serif" font-size="11" text-anchor="middle">X: -4.00mm</text><line x1="530.323" x2="530.323" y1="445.161" y2="474.194" stroke="#fff" stroke-width="1" class="anchor-offset-dimension-y"/><line x1="526.323" x2="534.323" y1="445.161" y2="445.161" stroke="#fff" stroke-width="1"/><line x1="526.323" x2="534.323" y1="474.194" y2="474.194" stroke="#fff" stroke-width="1"/><text x="522.323" y="459.677" fill="#fff" class="anchor-offset-label" dominant-baseline="middle" font-family="Arial, sans-serif" font-size="11" text-anchor="end">Y: -3.00mm</text></svg>