<svg xmlns="http://www.w3.org/2000/svg" width="800" height="600"><style/><rect width="800" height="600" x="0" y="0" fill="#000" class="boundary" data-pcb-layer="global" data-type="pcb_background"/><rect width="774.194" height="516.129" x="12.903" y="41.935" fill="none" stroke="#fff" stroke-width=".3" class="pcb-boundary" data-pcb-layer="global" data-type="pcb_boundary"/><path fill="none" stroke="rgba(255, 255, 255, 0.5)" stroke-width="1.29" d="M 12.903225806451587 558.0645161290323 L 787.0967741935483 558.0645161290323 L 787.0967741935483 41.9354838709678 L 12.903225806451587 41.9354838709678 Z" class="pcb-board" data-pcb-layer="board" data-type="pcb_board"/><g data-pcb-layer="top" data-type="pcb_component" transform="translate(335.4838709677419, 261.29032258064524) rotate(0) scale(1, -1)"><rect width="64.516" height="51.613" x="-32.258" y="-25.806" fill="rgba(255, 0, 0, 0.1)" stroke="red" class="pcb-component" data-pcb-layer="top" data-type="pcb_component"/></g><g data-pcb-layer="top" data-type="pcb_component" transform="translate(438.70967741935476, 325.8064516129033) rotate(0) scale(1, -1)"><rect width="51.613" height="38.71" x="-25.806" y="-19.355" fill="rgba(255, 0, 0, 0.1)" stroke="red" class="pcb-component" data-pcb-layer="top" data-type="pcb_component"/></g><g data-pcb-layer="top" data-type="pcb_component" transform="translate(593.5483870967741, 170.96774193548393) rotate(0) scale(1, -1)"><rect width="77.419" height="64.516" x="-38.71" y="-32.258" fill="rgba(255, 0, 0, 0.1)" stroke="red" class="pcb-component" data-pcb-layer="top" data-type="pcb_component"/></g><rect width="232.258" height="193.548" x="283.871" y="203.226" fill="none" stroke="rgba(100, 200, 255, 0.6)" stroke-dasharray="3.871 1.935" stroke-width="1.29" class="pcb-group" data-group-name="Group 1" data-pcb-group-id="group_1" data-pcb-layer="overlay" data-type="pcb_group"/><g class="anchor-offset-marker" data-type="anchor_offset_marker"><line x1="400" x2="400" y1="295" y2="305" stroke="#fff" stroke-linecap="round" stroke-width="1.5"/><line x1="395" x2="405" y1="300" y2="300" stroke="#fff" stroke-linecap="round" stroke-width="1.5"/></g><line x1="393.998" x2="338.914" y1="296.399" y2="263.348" stroke="#fff" stroke-dasharray="3 3" stroke-width=".5" class="anchor-offset-connector" opacity=".5"/><circle cx="335.484" cy="261.29" r="2" fill="#fff" class="anchor-offset-component-marker" opacity=".7"/><line x1="400" x2="335.484" y1="220.484" y2="220.484" stroke="#fff" stroke-width="1" class="anchor-offset-dimension-x"/><line x1="400" x2="400" y1="216.484" y2="224.484" stroke="#fff" stroke-width="1"/><line x1="335.484" x2="335.484" y1="216.484" y2="224.484" stroke="#fff" stroke-width="1"/><text x="367.742" y="208.484" fill="#fff" class="anchor-offset-label" dominant-baseline="baseline" font-family="Arial, sans-serif" font-size="11" text-anchor="middle">X: -5.00mm</text><line x1="293.226" x2="293.226" y1="300" y2="261.29" stroke="#fff" stroke-width="1" class="anchor-offset-dimension-y"/><line x1="289.226" x2="297.226" y1="300" y2="300" stroke="#fff" stroke-width="1"/><line x1="289.226" x2="297.226" y1="261.29" y2="261.29" stroke="#fff" stroke-width="1"/><text x="285.226" y="280.645" fill="#fff" class="anchor-offset-label" dominant-baseline="middle" font-family="Arial, sans-serif" font-size="11" text-anchor="end">Y: 3.00mm</text><g class="anchor-offset-marker" data-type="anchor_offset_marker"><line x1="400" x2="400" y1="295" y2="305" stroke="#fff" stroke-linecap="round" stroke-width="1.5"/><line x1="395" x2="405" y1="300" y2="300" stroke="#fff" stroke-linecap="round" stroke-width="1.5"/></g><line x1="405.824" x2="435.381" y1="303.883" y2="323.588" stroke="#fff" stroke-dasharray="3 3" stroke-width=".5" class="anchor-offset-connector" opacity=".5"/><circle cx="438.71" cy="325.806" r="2" fill="#fff" class="anchor-offset-component-marker" opacity=".7"/><line x1="400" x2="438.71" y1="360.161" y2="360.161" stroke="#fff" stroke-width="1" class="anchor-offset-dimension-x"/><line x1="400" x2="400" y1="356.161" y2="364.161" stroke="#fff" stroke-width="1"/><line x1="438.71" x2="438.71" y1="356.161" y2="364.161" stroke="#fff" stroke-width="1"/><text x="419.355" y="372.161" fill="#fff" class="anchor-offset-label" dominant-baseline="hanging" font-family="Arial, sans-serif" font-size="11" text-anchor="middle">X: 3.00mm</text><line x1="474.516" x2="474.516" y1="300" y2="325.806" stroke="#fff" stroke-width="1" class="anchor-offset-dimension-y"/><line x1="470.516" x2="478.516" y1="300" y2="300" stroke="#fff" stroke-width="1"/><line x1="470.516" x2="478.516" y1="325.806" y2="325.806" stroke="#fff" stroke-width="1"/><text x="482.516" y="312.903" fill="#fff" class="anchor-offset-label" dominant-baseline="middle" font-family="Arial, sans-serif" font-size="11" text-anchor="start">Y: -2.00mm</text></svg>