<svg xmlns="http://www.w3.org/2000/svg" width="800" height="600"><style/><rect width="800" height="600" x="0" y="0" fill="#000" class="boundary" data-pcb-layer="global" data-type="pcb_background"/><rect width="387.097" height="212.903" x="206.452" y="193.548" fill="none" stroke="#fff" stroke-width=".3" class="pcb-boundary" data-pcb-layer="global" data-type="pcb_boundary"/><rect width="193.548" height="193.548" x="245.161" y="212.903" fill="#C83434" class="pcb-pad" data-pcb-layer="top" data-type="pcb_smtpad"/><rect width="193.548" height="193.548" x="380.645" y="212.903" fill="#C83434" class="pcb-pad" data-pcb-layer="top" data-type="pcb_smtpad"/><g data-pcb-layer="through" data-type="pcb_plated_hole"><circle cx="419.355" cy="193.548" r="96.774" fill="#C83434" class="pcb-hole-outer" data-pcb-layer="top" data-type="pcb_plated_hole"/><circle cx="419.355" cy="193.548" r="48.387" fill="#FF26E2" class="pcb-hole-inner" data-pcb-layer="drill" data-type="pcb_plated_hole_drill"/></g><rect width="10" height="10" x="407.903" y="265.968" fill="red" data-pcb-layer="overlay" data-type="pcb_footprint_overlap_error" transform="rotate(45 412.9032258064516 270.96774193548396)"/><text x="412.903" y="255.968" fill="red" data-pcb-layer="overlay" data-type="pcb_footprint_overlap_error" font-family="sans-serif" font-size="12" text-anchor="middle">SMT pads and plated hole overlap detected</text><rect width="10" height="10" x="336.935" y="304.677" fill="red" data-pcb-layer="overlay" data-type="pcb_footprint_overlap_error" transform="rotate(45 341.93548387096774 309.6774193548388)"/><line x1="412.903" x2="341.935" y1="270.968" y2="309.677" stroke="red" stroke-dasharray="2 2" stroke-width="1.5" data-pcb-layer="overlay" data-type="pcb_footprint_overlap_error"/><rect width="10" height="10" x="472.419" y="304.677" fill="red" data-pcb-layer="overlay" data-type="pcb_footprint_overlap_error" transform="rotate(45 477.4193548387097 309.6774193548388)"/><line x1="412.903" x2="477.419" y1="270.968" y2="309.677" stroke="red" stroke-dasharray="2 2" stroke-width="1.5" data-pcb-layer="overlay" data-type="pcb_footprint_overlap_error"/><rect width="10" height="10" x="414.355" y="188.548" fill="red" data-pcb-layer="overlay" data-type="pcb_footprint_overlap_error" transform="rotate(45 419.35483870967744 193.54838709677426)"/><line x1="412.903" x2="419.355" y1="270.968" y2="193.548" stroke="red" stroke-dasharray="2 2" stroke-width="1.5" data-pcb-layer="overlay" data-type="pcb_footprint_overlap_error"/></svg>