<svg xmlns="http://www.w3.org/2000/svg" width="800" height="600"><style/><rect width="800" height="600" x="0" y="0" fill="#000" class="boundary" data-pcb-layer="global" data-type="pcb_background"/><rect width="500" height="500" x="150" y="50" fill="none" stroke="#fff" stroke-width=".3" class="pcb-boundary" data-pcb-layer="global" data-type="pcb_boundary"/><path fill="none" stroke="rgba(255, 255, 255, 0.5)" stroke-width="5" d="M 150 550 L 650 550 L 650 50 L 150 50 Z" class="pcb-board" data-pcb-layer="board" data-type="pcb_board"/><g data-pcb-layer="through" data-type="pcb_plated_hole"><path fill="#C83434" d="M-60,-60 h120 a60,60 0 0 1 0,120 h-120 a60,60 0 0 1 0,-120 z" class="pcb-hole-outer" data-pcb-layer="top" data-type="pcb_plated_hole" transform="translate(400 400)"/><path fill="#FF26E2" d="M-50,-30 h100 a30,30 0 0 1 0,60 h-100 a30,30 0 0 1 0,-60 z" class="pcb-hole-inner" data-pcb-layer="drill" data-type="pcb_plated_hole_drill" transform="translate(400 400)"/></g><g data-pcb-layer="through" data-type="pcb_plated_hole"><ellipse cx="0" cy="0" fill="#C83434" class="pcb-hole-outer" data-pcb-layer="top" data-type="pcb_plated_hole" rx="120" ry="60" transform="translate(400 200)"/><ellipse cx="0" cy="0" fill="#FF26E2" class="pcb-hole-inner" data-pcb-layer="drill" data-type="pcb_plated_hole_drill" rx="80" ry="30" transform="translate(400 200)"/></g></svg>